<svg width="20" height="20" viewBox="0 0 20 20" fill="none" xmlns="http://www.w3.org/2000/svg">
<path fill-rule="evenodd" clip-rule="evenodd" d="M12.8452 0.833328H4.16667C3.24619 0.833328 2.5 1.57952 2.5 2.49999V17.5C2.5 18.4205 3.24619 19.1667 4.16667 19.1667H15.8333C16.7538 19.1667 17.5 18.4205 17.5 17.5V5.48815L12.8452 0.833328ZM4.16667 2.49999H10.8333V5.83333C10.8333 6.7538 11.5795 7.49999 12.5 7.49999H15.8333V17.5H4.16667V2.49999ZM12.5 5.83333V2.84517L15.4882 5.83333H12.5ZM9.16665 8.33333V12.1548L8.08924 11.0774L6.91073 12.2559L9.99999 15.3452L13.0892 12.2559L11.9107 11.0774L10.8333 12.1548V8.33333H9.16665Z" fill="#0A5BFF"/>
</svg>
