<svg width="20" height="20" viewBox="0 0 20 20" fill="none" xmlns="http://www.w3.org/2000/svg">
<path fill-rule="evenodd" clip-rule="evenodd" d="M0.916504 10C0.916504 4.98343 4.98325 0.916687 9.99984 0.916687C15.0164 0.916687 19.0832 4.98343 19.0832 10C19.0832 15.0166 15.0164 19.0834 9.99984 19.0834C4.98325 19.0834 0.916504 15.0166 0.916504 10ZM9.99984 2.41669C5.81168 2.41669 2.4165 5.81186 2.4165 10C2.4165 14.1882 5.81168 17.5834 9.99984 17.5834C14.188 17.5834 17.5832 14.1882 17.5832 10C17.5832 5.81186 14.188 2.41669 9.99984 2.41669Z" fill="#0A5BFF"/>
<path fill-rule="evenodd" clip-rule="evenodd" d="M10 5.91669C10.4142 5.91669 10.75 6.25247 10.75 6.66669V13.3334C10.75 13.7476 10.4142 14.0834 10 14.0834C9.58579 14.0834 9.25 13.7476 9.25 13.3334V6.66669C9.25 6.25247 9.58579 5.91669 10 5.91669Z" fill="#0A5BFF"/>
<path fill-rule="evenodd" clip-rule="evenodd" d="M5.9165 10C5.9165 9.58579 6.25229 9.25 6.6665 9.25H13.3332C13.7474 9.25 14.0832 9.58579 14.0832 10C14.0832 10.4142 13.7474 10.75 13.3332 10.75H6.6665C6.25229 10.75 5.9165 10.4142 5.9165 10Z" fill="#0A5BFF"/>
</svg>
