<svg width="20" height="20" viewBox="0 0 20 20" fill="none" xmlns="http://www.w3.org/2000/svg">
<path fill-rule="evenodd" clip-rule="evenodd" d="M7.41675 3.33335C7.41675 2.82709 7.82715 2.41669 8.33342 2.41669H11.6667C12.173 2.41669 12.5834 2.82709 12.5834 3.33335V4.25002H7.41675V3.33335ZM6.66405 5.75002L6.66675 5.75002L6.66945 5.75002H13.3307L13.3334 5.75002L13.3361 5.75002H15.0834V16.6667C15.0834 17.1729 14.673 17.5834 14.1667 17.5834H5.83342C5.32715 17.5834 4.91675 17.1729 4.91675 16.6667V5.75002H6.66405ZM5.91675 4.25002V3.33335C5.91675 1.99867 6.99873 0.916687 8.33342 0.916687H11.6667C13.0014 0.916687 14.0834 1.99867 14.0834 3.33335V4.25002H17.5C17.9142 4.25002 18.25 4.5858 18.25 5.00002C18.25 5.41423 17.9142 5.75002 17.5 5.75002H16.5834V16.6667C16.5834 18.0014 15.5014 19.0834 14.1667 19.0834H5.83342C4.49873 19.0834 3.41675 18.0014 3.41675 16.6667V5.75002H2.5C2.08579 5.75002 1.75 5.41423 1.75 5.00002C1.75 4.5858 2.08579 4.25002 2.5 4.25002H5.91675ZM8.33325 8.41669C8.74747 8.41669 9.08325 8.75247 9.08325 9.16669V14.1667C9.08325 14.5809 8.74747 14.9167 8.33325 14.9167C7.91904 14.9167 7.58325 14.5809 7.58325 14.1667V9.16669C7.58325 8.75247 7.91904 8.41669 8.33325 8.41669ZM12.4167 9.16669C12.4167 8.75247 12.081 8.41669 11.6667 8.41669C11.2525 8.41669 10.9167 8.75247 10.9167 9.16669V14.1667C10.9167 14.5809 11.2525 14.9167 11.6667 14.9167C12.081 14.9167 12.4167 14.5809 12.4167 14.1667V9.16669Z" fill="#939393"/>
</svg>
