<svg width="20" height="20" viewBox="0 0 20 20" fill="none" xmlns="http://www.w3.org/2000/svg">
<path fill-rule="evenodd" clip-rule="evenodd" d="M9.04709 6.94832C9.47885 6.36648 9.63367 5.75327 9.14537 5.212C8.04957 3.67868 7.31262 2.73048 6.85037 2.27385C5.97157 1.40574 4.52593 1.52317 3.76483 2.27311C3.35603 2.67591 3.21763 2.81424 2.79789 3.24058C0.459846 5.57988 1.88571 10.5251 5.67616 14.3192C9.46575 18.1126 14.4105 19.5392 16.7534 17.1949C17.1408 16.8215 17.4687 16.4934 17.7273 16.2201C18.4732 15.4317 18.5864 14.0498 17.7224 13.1521C17.2795 12.6918 16.3753 11.9905 14.7774 10.8475C14.2881 10.4099 13.7078 10.5048 13.1759 10.8538C12.92 11.0216 12.7338 11.1915 12.3821 11.5435L11.7436 12.1823C11.6595 12.2665 10.5175 11.6946 9.40893 10.5849C8.29977 9.47468 7.72825 8.33262 7.81196 8.24892L8.45093 7.60959C8.5625 7.49792 8.61583 7.44385 8.68423 7.37196C8.82674 7.22219 8.94473 7.08627 9.04709 6.94832ZM12.9214 13.3609L13.5601 12.7218C13.7536 12.5281 13.8791 12.409 13.9811 12.3269C15.3808 13.3321 16.1914 13.9641 16.5225 14.3082C16.7213 14.5147 16.6905 14.8916 16.5176 15.0743C16.2785 15.3271 15.9678 15.638 15.5865 16.0057C14.0714 17.5214 10.0799 16.3698 6.85427 13.141C3.62762 9.91117 2.47657 5.91906 3.98016 4.41464C4.39822 3.99005 4.53067 3.85767 4.93363 3.46062C5.08472 3.31174 5.49627 3.27831 5.68006 3.45987C6.03595 3.81143 6.69612 4.65673 7.66726 6.00951C7.61698 6.07193 7.55419 6.14246 7.47778 6.22277C7.42169 6.28172 7.37496 6.32908 7.27281 6.43133L6.63447 7.07003C5.54851 8.1559 6.47335 10.004 8.23081 11.7632C9.98707 13.5212 11.8359 14.447 12.9214 13.3609Z" fill="#0A5BFF"/>
</svg>
