<svg width="187" height="40" viewBox="0 0 187 40" fill="none" xmlns="http://www.w3.org/2000/svg">
<g clip-path="url(#clip0_525_2110)">
<path d="M16.9662 39.9937L0 29.9969V10.0031L16.9662 0.00628662V39.9937Z" fill="#0055FF"/>
<path d="M16.9663 0.00628662L33.9325 10.0031V29.9969L16.9663 39.9937V0.00628662Z" fill="#00AEFF"/>
<path d="M50.8933 39.9937L33.9321 29.9969V10.0031L50.8933 0.00628662V39.9937Z" fill="#0055FF"/>
<path d="M50.8936 0.00628662L67.8598 10.0031V29.9969L50.8936 39.9937V0.00628662Z" fill="#00AEFF"/>
<path d="M33.9325 25.9531H33.9275L16.9663 0.00628662V39.9937L19.0224 38.7841V7.10405L33.9275 29.9069H33.9325L48.8376 7.10405V38.7841L50.8936 39.9937V0.00628662L33.9325 25.9531Z" fill="white"/>
<path d="M77.215 17.1109H74.0078L76.2348 3.29522H78.8991L82.3577 11.5576L85.8163 3.29522H88.4806L90.7076 17.1109H87.5003L86.3944 8.86847L82.9157 17.1109H81.7896L78.3109 8.86847L77.215 17.1109V17.1109ZM100.963 3.29522V5.98938H96.3177V8.66353H100.736V11.3577H96.3177V14.4217H100.963V17.1159H93.1105V3.29522H100.963V3.29522ZM111.464 5.98938H108.443V17.1109H105.236V5.98938H102.214V3.29522H111.464V5.98938V5.98938ZM113.148 3.29522H116.355V12.3274L122.795 3.13028H125.63V17.1109H122.423V8.05873L115.983 17.2758H113.148V3.29522V3.29522ZM131.879 3.29522V8.55357H137.419V3.29522H140.626V17.1109H137.419V11.2477H131.879V17.1109H128.672V3.29522H131.879V3.29522ZM143.667 3.29522H147.915C149.524 3.29522 150.705 3.64511 151.454 4.34989C152.123 4.98469 152.454 5.85442 152.454 6.95907C152.454 7.64885 152.304 8.23867 151.997 8.71852C151.72 9.17337 151.328 9.51327 150.831 9.7332C151.61 9.85816 152.248 10.1681 152.746 10.6629C153.344 11.2577 153.641 12.0775 153.641 13.1271C153.641 14.2718 153.279 15.2065 152.56 15.9213C151.741 16.706 150.519 17.1009 148.895 17.1009H143.667V3.29522V3.29522ZM146.834 5.77944V8.90846H147.357C148.081 8.90846 148.619 8.7785 148.981 8.51358C149.358 8.25366 149.544 7.84379 149.544 7.28897C149.544 6.79412 149.363 6.40425 149.001 6.12933C148.694 5.89441 148.141 5.77944 147.332 5.77944H146.834V5.77944ZM146.834 11.2677V14.6217H147.603C148.785 14.6217 149.574 14.4367 149.976 14.0618C150.283 13.7869 150.434 13.397 150.434 12.9022C150.434 12.4174 150.288 12.0475 149.996 11.7826C149.619 11.4377 148.855 11.2627 147.704 11.2627H146.834V11.2677ZM163.896 3.29522V5.98938H159.251V8.66353H163.67V11.3577H159.251V14.4217H163.896V17.1159H156.044V3.29522H163.896V3.29522ZM173.357 14.4367C174.508 14.4367 175.574 13.9619 176.544 13.0072V16.676C175.559 17.1709 174.538 17.4208 173.482 17.4208C171.22 17.4208 169.4 16.751 168.023 15.4114C166.58 14.0169 165.856 12.2724 165.856 10.1731C165.856 8.10371 166.58 6.36926 168.023 4.97469C169.4 3.65011 171.125 2.98532 173.211 2.98532C174.236 2.98532 175.347 3.24024 176.544 3.75008V7.43892C175.614 6.45923 174.528 5.96938 173.296 5.96938C172.155 5.96938 171.215 6.32927 170.461 7.04404C169.586 7.88878 169.149 8.94844 169.149 10.233C169.149 11.4876 169.551 12.5023 170.356 13.2771C171.135 14.0518 172.135 14.4367 173.357 14.4367V14.4367ZM187 5.98938H183.979V17.1109H180.772V5.98938H177.75V3.29522H187V5.98938V5.98938ZM81.0657 34.0356C82.2169 34.0356 83.2827 33.5607 84.2529 32.606V36.2748C83.2676 36.7697 82.2471 37.0196 81.1914 37.0196C78.9293 37.0196 77.1095 36.3498 75.7321 35.0102C74.2893 33.6157 73.5654 31.8712 73.5654 29.7719C73.5654 27.7025 74.2893 25.9681 75.7321 24.5735C77.1095 23.2489 78.8337 22.5842 80.92 22.5842C81.9455 22.5842 83.0564 22.8391 84.2529 23.3489V27.0378C83.3229 26.0581 82.237 25.5682 81.0054 25.5682C79.8643 25.5682 78.9242 25.9281 78.1702 26.6429C77.2955 27.4876 76.8581 28.5473 76.8581 29.8319C76.8581 31.0865 77.2603 32.1012 78.0646 32.8759C78.8438 33.6457 79.8442 34.0356 81.0657 34.0356V34.0356ZM94.6689 22.8891V25.5832H90.0239V28.2574H94.4426V30.9515H90.0239V34.0156H94.6689V36.7097H86.8166V22.8891H94.6689ZM97.2728 22.8891H102.169C103.738 22.8891 104.954 23.2689 105.814 24.0287C106.719 24.8135 107.166 25.9331 107.166 27.3826C107.166 28.7372 106.769 29.8219 105.98 30.6366C105.175 31.4514 103.994 31.8612 102.441 31.8612H100.48V36.7097H97.2728V22.8891ZM100.485 25.4982V29.2471H101.631C102.421 29.2471 102.999 29.0721 103.361 28.7272C103.707 28.3823 103.883 27.9275 103.883 27.3577C103.883 26.7778 103.707 26.328 103.361 26.0131C102.999 25.6682 102.4 25.4932 101.571 25.4932H100.485V25.4982ZM109.192 22.8891H113.44C115.048 22.8891 116.23 23.2389 116.979 23.9437C117.647 24.5785 117.979 25.4483 117.979 26.5529C117.979 27.2427 117.828 27.8325 117.522 28.3124C117.245 28.7672 116.853 29.1071 116.355 29.327C117.135 29.452 117.773 29.7619 118.271 30.2567C118.869 30.8516 119.165 31.6713 119.165 32.721C119.165 33.8656 118.804 34.8003 118.085 35.5151C117.265 36.2998 116.044 36.6947 114.42 36.6947H109.192V22.8891ZM112.359 25.3733V28.5023H112.882C113.606 28.5023 114.144 28.3723 114.505 28.1074C114.882 27.8475 115.068 27.4376 115.068 26.8828C115.068 26.388 114.888 25.9981 114.526 25.7232C114.219 25.4882 113.666 25.3733 112.857 25.3733H112.359V25.3733ZM112.359 30.8665V34.2205H113.128C114.309 34.2205 115.099 34.0356 115.501 33.6607C115.807 33.3858 115.958 32.9959 115.958 32.501C115.958 32.0162 115.812 31.6463 115.521 31.3814C115.144 31.0365 114.38 30.8616 113.229 30.8616H112.359V30.8665ZM121.563 22.8891H124.771V31.9212L131.21 22.7241H134.045V36.7047H130.838V27.6526L124.399 36.8697H121.563V22.8891ZM143.939 34.0356C145.09 34.0356 146.156 33.5607 147.126 32.606V36.2748C146.14 36.7697 145.12 37.0196 144.064 37.0196C141.802 37.0196 139.982 36.3498 138.605 35.0102C137.162 33.6157 136.438 31.8712 136.438 29.7719C136.438 27.7025 137.162 25.9681 138.605 24.5735C139.982 23.2489 141.707 22.5842 143.793 22.5842C144.818 22.5842 145.929 22.8391 147.126 23.3489V27.0378C146.196 26.0581 145.11 25.5682 143.878 25.5682C142.737 25.5682 141.797 25.9281 141.043 26.6429C140.168 27.4876 139.731 28.5473 139.731 29.8319C139.731 31.0865 140.133 32.1012 140.937 32.8759C141.717 33.6457 142.717 34.0356 143.939 34.0356Z" fill="black"/>
</g>
<defs>
<clipPath id="clip0_525_2110">
<rect width="187" height="39.9874" fill="white" transform="translate(0 0.00628662)"/>
</clipPath>
</defs>
</svg>
