<svg width="20" height="20" viewBox="0 0 20 20" fill="none" xmlns="http://www.w3.org/2000/svg">
<path fill-rule="evenodd" clip-rule="evenodd" d="M5.9165 5C5.9165 4.58579 6.25229 4.25 6.6665 4.25H17.4998C17.9141 4.25 18.2498 4.58579 18.2498 5C18.2498 5.41421 17.9141 5.75 17.4998 5.75H6.6665C6.25229 5.75 5.9165 5.41421 5.9165 5Z" fill="#0A5BFF"/>
<path fill-rule="evenodd" clip-rule="evenodd" d="M5.9165 10C5.9165 9.58579 6.25229 9.25 6.6665 9.25H17.4998C17.9141 9.25 18.2498 9.58579 18.2498 10C18.2498 10.4142 17.9141 10.75 17.4998 10.75H6.6665C6.25229 10.75 5.9165 10.4142 5.9165 10Z" fill="#0A5BFF"/>
<path fill-rule="evenodd" clip-rule="evenodd" d="M5.9165 15C5.9165 14.5858 6.25229 14.25 6.6665 14.25H17.4998C17.9141 14.25 18.2498 14.5858 18.2498 15C18.2498 15.4142 17.9141 15.75 17.4998 15.75H6.6665C6.25229 15.75 5.9165 15.4142 5.9165 15Z" fill="#0A5BFF"/>
<path fill-rule="evenodd" clip-rule="evenodd" d="M4.0835 5C4.0835 4.58579 3.74771 4.25 3.3335 4.25H2.50016C2.08595 4.25 1.75016 4.58579 1.75016 5C1.75016 5.41421 2.08595 5.75 2.50016 5.75H3.3335C3.74771 5.75 4.0835 5.41421 4.0835 5Z" fill="#0A5BFF"/>
<path fill-rule="evenodd" clip-rule="evenodd" d="M4.0835 10C4.0835 9.58579 3.74771 9.25 3.3335 9.25H2.50016C2.08595 9.25 1.75016 9.58579 1.75016 10C1.75016 10.4142 2.08595 10.75 2.50016 10.75H3.3335C3.74771 10.75 4.0835 10.4142 4.0835 10Z" fill="#0A5BFF"/>
<path fill-rule="evenodd" clip-rule="evenodd" d="M4.0835 15C4.0835 14.5858 3.74771 14.25 3.3335 14.25H2.50016C2.08595 14.25 1.75016 14.5858 1.75016 15C1.75016 15.4142 2.08595 15.75 2.50016 15.75H3.3335C3.74771 15.75 4.0835 15.4142 4.0835 15Z" fill="#0A5BFF"/>
</svg>
